<?xml version="1.0" standalone="no"?>
<!DOCTYPE svg PUBLIC "-//W3C//DTD SVG 20010904//EN"
 "http://www.w3.org/TR/2001/REC-SVG-20010904/DTD/svg10.dtd">
<svg version="1.0" xmlns="http://www.w3.org/2000/svg"
 width="400.000000pt" height="397.000000pt" viewBox="0 0 400.000000 397.000000"
 preserveAspectRatio="xMidYMid meet">
<metadata>
Created by potrace 1.16, written by Peter Selinger 2001-2019
</metadata>
<g transform="translate(0.000000,397.000000) scale(0.100000,-0.100000)"
fill="currentColor" stroke="none">
<path d="M1705 3474 c-11 -3 -30 -7 -42 -9 -32 -7 -82 -53 -98 -91 -7 -18 -22
-85 -31 -148 l-18 -115 -46 -16 c-25 -9 -68 -27 -97 -41 -65 -30 -68 -30 -108
4 -69 56 -130 96 -177 114 -42 16 -55 17 -91 6 -23 -6 -58 -23 -77 -37 -44
-31 -261 -273 -277 -309 -32 -72 -11 -131 98 -268 27 -34 49 -67 49 -74 0 -6
-17 -54 -37 -106 -34 -87 -40 -94 -68 -98 -229 -34 -260 -49 -294 -142 -20
-51 -21 -69 -16 -237 9 -269 21 -286 230 -322 l119 -21 33 -94 c18 -52 32 -98
33 -101 0 -4 -23 -35 -51 -70 -90 -112 -109 -147 -109 -203 1 -28 6 -61 13
-73 20 -37 258 -283 299 -310 30 -20 50 -26 94 -25 60 0 70 6 232 125 36 26
46 29 60 19 9 -7 27 -16 40 -22 12 -5 42 -19 66 -30 25 -11 49 -20 54 -20 23
0 40 -40 46 -110 14 -156 57 -238 136 -260 50 -14 399 -13 441 2 89 30 120 80
139 218 21 158 15 146 68 164 55 20 85 33 129 54 35 17 24 22 126 -55 159
-122 241 -120 358 5 29 31 89 95 132 141 87 92 97 111 97 177 0 55 -22 98 -94
189 -53 66 -69 109 -49 129 5 4 20 40 34 79 l26 72 88 12 c128 19 163 30 198
67 47 48 57 101 57 300 0 193 -6 219 -62 273 -34 33 -62 42 -197 65 l-73 13
-32 77 c-18 43 -35 81 -39 84 -17 18 -3 50 54 122 34 42 71 97 82 121 17 39
18 50 8 97 -13 56 -34 83 -203 263 -142 150 -206 158 -362 47 -35 -26 -69 -53
-76 -61 -17 -21 -38 -19 -96 9 -27 13 -67 29 -89 37 -65 21 -72 32 -80 117 -8
93 -28 171 -51 207 -30 46 -69 54 -283 60 -108 2 -205 2 -216 -1z m356 -190
c12 -15 19 -54 34 -199 10 -90 24 -104 146 -146 35 -12 102 -39 147 -60 46
-22 94 -39 107 -39 13 0 71 33 129 73 59 39 113 77 122 82 12 8 37 -14 124
-105 63 -67 109 -123 109 -135 0 -11 -29 -56 -66 -100 -102 -124 -106 -143
-59 -248 40 -87 76 -184 76 -205 0 -25 54 -72 83 -72 47 0 203 -34 220 -48 15
-13 17 -34 17 -152 0 -170 1 -168 -137 -187 -125 -17 -163 -36 -182 -88 -8
-22 -36 -93 -64 -158 -37 -90 -48 -127 -44 -152 3 -21 34 -69 81 -130 42 -53
76 -101 76 -107 0 -9 -198 -230 -212 -236 -6 -3 -113 66 -207 134 -46 33 -86
30 -163 -10 -35 -18 -105 -48 -154 -65 -130 -46 -144 -66 -160 -236 -3 -33
-12 -75 -19 -92 l-14 -33 -154 0 c-119 0 -157 3 -166 14 -6 7 -16 51 -22 97
-13 107 -34 182 -57 202 -9 8 -44 25 -77 37 -33 12 -74 28 -90 35 -17 8 -41
19 -55 25 -14 5 -38 19 -55 29 -59 38 -97 27 -224 -64 -46 -33 -90 -64 -97
-70 -11 -8 -40 16 -124 100 -66 66 -110 118 -110 130 0 11 19 45 43 75 104
132 117 152 117 180 0 15 -18 66 -40 112 -21 46 -44 107 -51 136 -20 97 -59
122 -214 137 -70 7 -104 18 -117 39 -4 6 -8 72 -8 147 0 110 3 139 15 149 16
13 49 21 179 44 65 11 84 18 103 40 13 15 23 35 23 45 0 21 61 175 90 226 32
57 27 104 -17 156 -21 24 -40 46 -44 49 -24 20 -79 106 -79 123 0 21 191 237
209 237 4 0 54 -31 112 -68 153 -101 151 -100 263 -47 51 24 129 56 175 70
109 36 111 39 131 224 6 52 16 101 22 108 8 10 49 13 163 13 128 0 155 -3 166
-16z M1819 2449 c-103 -15 -208 -67 -287 -143 -104 -98 -152 -216 -152 -368 1
-113 11 -164 53 -246 89 -179 260 -282 467 -282 141 0 249 42 341 132 98 96
137 159 166 271 16 65 14 236 -5 274 -5 10 -22 45 -38 78 -16 33 -38 71 -49
85 -87 107 -210 179 -335 195 -91 12 -106 12 -161 4z m185 -190 c101 -35 163
-90 205 -179 22 -46 26 -69 26 -145 0 -77 -4 -98 -27 -148 -36 -77 -112 -150
-185 -177 -46 -17 -74 -21 -138 -18 -174 8 -293 110 -335 287 -22 93 18 216
97 297 94 97 228 128 357 83z"/>
</g>
</svg>
